<?xml version="1.0" encoding="UTF-8"?>
<svg xmlns="http://www.w3.org/2000/svg" xmlns:xlink="http://www.w3.org/1999/xlink" viewBox="0 0 50 50" width="50px" height="50px">
<g id="surface99226366">
<path style=" stroke:none;fill-rule:nonzero;fill:rgb(48.627451%,47.058824%,47.058824%);fill-opacity:1;" d="M 36 3.988281 L 14 3.988281 C 8.488281 3.988281 4 8.480469 4 13.988281 L 4 35.988281 C 4 41.5 8.488281 45.988281 14 45.988281 L 36 45.988281 C 41.511719 45.988281 46 41.5 46 35.988281 L 46 13.988281 C 46 8.480469 41.511719 3.988281 36 3.988281 Z M 27 35 C 26.449219 35 26 34.550781 26 34 L 26 30 C 26 29.449219 26.449219 29 27 29 C 30.859375 29 34 25.859375 34 22 C 34 18.480469 31.390625 15.558594 28 15.070312 L 28 17.101562 C 30.28125 17.558594 32 19.589844 32 22 C 32 24.761719 29.761719 27 27 27 C 26.449219 27 26 26.550781 26 26 C 26 25.449219 26.449219 25 27 25 C 28.648438 25 30 23.648438 30 22 C 30 20.351562 28.648438 19 27 19 C 26.449219 19 26 18.550781 26 18 L 26 14 C 26 13.449219 26.449219 13 27 13 C 31.960938 13 36 17.039062 36 22 C 36 26.621094 32.488281 30.449219 28 30.941406 L 28 32.960938 C 33.601562 32.449219 38 27.730469 38 22 C 38 15.929688 33.070312 11 27 11 L 24 11 L 24 40 C 24 40.550781 23.550781 41 23 41 L 19 41 C 18.449219 41 18 40.550781 18 40 L 18 11 L 16 11 L 16 40 C 16 40.550781 15.550781 41 15 41 C 14.449219 41 14 40.550781 14 40 L 14 10 C 14 9.449219 14.449219 9 15 9 L 19 9 C 19.550781 9 20 9.449219 20 10 L 20 39 L 22 39 L 22 10 C 22 9.449219 22.449219 9 23 9 L 27 9 C 34.171875 9 40 14.828125 40 22 C 40 29.171875 34.171875 35 27 35 Z M 27 35 "/>
</g>
</svg>
